<svg width="131" height="129" viewBox="0 0 131 129" fill="none" xmlns="http://www.w3.org/2000/svg">
<g filter="url(#filter0_b_37_98)">
<g filter="url(#filter1_b_37_98)">
<path d="M13.57 128.075C10.6567 128.075 8.31833 127.232 6.555 125.545C4.79167 123.935 3.91 121.75 3.91 118.99C3.91 116.997 4.44667 114.735 5.52 112.205C6.67 109.675 8.47167 106.992 10.925 104.155C16.1383 98.0983 21.9267 93.1917 28.29 89.435C34.73 85.6783 41.6683 82.6117 49.105 80.235C49.795 78.395 50.5617 75.98 51.405 72.99C52.325 70 53.3983 66.8567 54.625 63.56C55.8517 60.1867 57.1933 57.1583 58.65 54.475C55.2 54.3217 51.5583 54.475 47.725 54.935C43.8917 55.3183 40.25 56.0467 36.8 57.12C33.4267 58.1167 30.6667 59.535 28.52 61.375C26.45 63.1383 25.415 65.3233 25.415 67.93C25.415 69.4633 25.8367 70.7283 26.68 71.725C27.6 72.645 28.5967 73.3733 29.67 73.91C30.82 74.4467 31.7017 74.9067 32.315 75.29C32.8517 75.5967 33.12 75.865 33.12 76.095C33.12 76.4783 32.7367 76.555 31.97 76.325C29.44 75.7883 27.255 74.485 25.415 72.415C23.575 70.2683 22.655 67.8917 22.655 65.285C22.5017 62.3717 23.23 59.9183 24.84 57.925C26.45 55.9317 28.635 54.3217 31.395 53.095C34.155 51.7917 37.26 50.8717 40.71 50.335C44.16 49.7217 47.6483 49.415 51.175 49.415C53.0917 49.415 54.9317 49.4917 56.695 49.645C58.4583 49.7217 60.145 49.9133 61.755 50.22C62.5983 49.2233 63.5183 48.4183 64.515 47.805C65.5117 47.1917 66.5467 46.885 67.62 46.885C68.4633 46.885 68.885 47.1533 68.885 47.69C68.885 48.3033 68.4633 48.6867 67.62 48.84C66.5467 48.9933 65.4733 49.645 64.4 50.795C65.3967 51.1017 66.3167 51.4083 67.16 51.715C68.08 52.0217 68.9233 52.3667 69.69 52.75C70.15 52.98 70.725 53.4783 71.415 54.245C72.1817 55.0117 72.565 55.5867 72.565 55.97C72.565 56.3533 72.2967 56.545 71.76 56.545C71.4533 56.545 71.07 56.5067 70.61 56.43C70.15 56.3533 69.575 56.2 68.885 55.97C67.045 55.3567 64.7833 54.935 62.1 54.705C61.2567 56.8517 60.4133 59.3433 59.57 62.18C58.7267 65.0167 57.9217 67.8533 57.155 70.69C56.465 73.5267 55.7367 76.1717 54.97 78.625C58.88 77.5517 61.9467 77.015 64.17 77.015C65.09 77.015 65.7033 77.13 66.01 77.36C66.3167 77.59 66.47 77.8967 66.47 78.28C66.47 78.97 66.2017 79.2 65.665 78.97C65.205 78.8167 64.6683 78.74 64.055 78.74C62.9817 78.74 61.7167 78.8933 60.26 79.2C58.8033 79.5067 57.4617 79.9667 56.235 80.58C55.085 81.1167 54.3567 81.7683 54.05 82.535C50.9833 90.8917 47.6483 97.9833 44.045 103.81C40.5183 109.637 36.915 114.313 33.235 117.84C29.555 121.443 26.0283 124.05 22.655 125.66C19.2817 127.27 16.2533 128.075 13.57 128.075ZM15.87 124.855C18.7067 124.855 21.505 123.743 24.265 121.52C27.1017 119.373 29.785 116.575 32.315 113.125C34.845 109.675 37.1833 105.995 39.33 102.085C41.4767 98.175 43.3167 94.4567 44.85 90.93C46.3833 87.4033 47.5333 84.5667 48.3 82.42C42.0133 84.49 36.1867 87.25 30.82 90.7C25.4533 94.15 20.6617 98.4817 16.445 103.695C14.145 106.532 12.4583 109.215 11.385 111.745C10.3883 114.198 9.89 116.345 9.89 118.185C9.89 120.255 10.4267 121.865 11.5 123.015C12.5733 124.242 14.03 124.855 15.87 124.855Z" fill="#00F3FF"/>
</g>
<g opacity="0.7" filter="url(#filter2_b_37_98)">
<path d="M70.375 104.25C64.5417 104.25 59.9583 103.25 56.625 101.25C53.2917 99.3333 51.625 96.5833 51.625 93C51.625 89.3333 52.7083 85.9583 54.875 82.875C57.0417 79.7083 59.8333 77 63.25 74.75C66.75 72.4167 70.375 70.625 74.125 69.375C77.9583 68.0417 81.5 67.375 84.75 67.375C86.4167 67.375 87.25 67.625 87.25 68.125C87.25 68.875 86.375 69.25 84.625 69.25C81.5417 69.25 78.1667 70 74.5 71.5C70.9167 73 67.7083 75.0833 64.875 77.75C62.625 79.75 60.9167 81.7917 59.75 83.875C58.6667 85.875 58.125 87.75 58.125 89.5C58.125 92.0833 59.3333 94.25 61.75 96C64.1667 97.6667 67.7917 98.5 72.625 98.5C75.4583 98.5 78.3333 98.2917 81.25 97.875C84.1667 97.375 86.7917 96.8333 89.125 96.25C91.5417 95.6667 93.375 95.2083 94.625 94.875C97.7083 93.875 100.792 92.6667 103.875 91.25C107.042 89.8333 109.875 88.25 112.375 86.5C114.875 84.6667 116.708 82.8333 117.875 81C118.542 80 119 79.0417 119.25 78.125C119.583 77.2083 119.75 76.3333 119.75 75.5C119.75 73.1667 118.708 71.2083 116.625 69.625C114.542 67.9583 111.875 66.4583 108.625 65.125C105.375 63.7917 101.917 62.5417 98.25 61.375C94.5833 60.125 91.125 58.8333 87.875 57.5C84.625 56.1667 81.9583 54.6667 79.875 53C77.7917 51.25 76.75 49.1667 76.75 46.75C76.75 44 77.75 41.5417 79.75 39.375C81.8333 37.125 84.4583 35.1667 87.625 33.5C90.875 31.75 94.3333 30.3333 98 29.25C101.667 28.0833 105.167 27.2083 108.5 26.625C111.833 26.0417 114.583 25.75 116.75 25.75C125.917 25.75 130.5 28.0417 130.5 32.625C130.5 34.4583 129.75 36.5833 128.25 39C127.583 40.25 126.625 41.4583 125.375 42.625C124.125 43.7083 123.167 44.25 122.5 44.25C122 44.25 121.75 43.9583 121.75 43.375C121.75 43.125 122.208 42.625 123.125 41.875C124.042 41.0417 124.958 40.0417 125.875 38.875C126.792 37.7083 127.25 36.5417 127.25 35.375C127.25 33.625 126.25 32.2917 124.25 31.375C122.333 30.4583 119.792 30 116.625 30C115.125 30 112.958 30.25 110.125 30.75C107.292 31.1667 104.208 31.875 100.875 32.875C97.5417 33.875 94.3333 35.2083 91.25 36.875C85.5 40.0417 82.625 42.75 82.625 45C82.625 46.6667 84.25 48.25 87.5 49.75C89.9167 50.8333 92.7083 51.9583 95.875 53.125C99.0417 54.2917 102.25 55.5417 105.5 56.875C108.75 58.2083 111.75 59.7083 114.5 61.375C117.333 63.0417 119.583 64.9167 121.25 67C123 69 123.875 71.2917 123.875 73.875C123.875 77.375 121.958 80.9583 118.125 84.625C115.125 87.4583 111.625 90.0833 107.625 92.5C103.708 94.9167 99.5417 97 95.125 98.75C90.7917 100.5 86.5 101.833 82.25 102.75C78 103.75 74.0417 104.25 70.375 104.25Z" fill="white"/>
</g>
</g>
<defs>
<filter id="filter0_b_37_98" x="-0.0899963" y="21.75" width="134.59" height="110.325" filterUnits="userSpaceOnUse" color-interpolation-filters="sRGB">
<feFlood flood-opacity="0" result="BackgroundImageFix"/>
<feGaussianBlur in="BackgroundImage" stdDeviation="2"/>
<feComposite in2="SourceAlpha" operator="in" result="effect1_backgroundBlur_37_98"/>
<feBlend mode="normal" in="SourceGraphic" in2="effect1_backgroundBlur_37_98" result="shape"/>
</filter>
<filter id="filter1_b_37_98" x="-6.09" y="36.885" width="88.655" height="101.19" filterUnits="userSpaceOnUse" color-interpolation-filters="sRGB">
<feFlood flood-opacity="0" result="BackgroundImageFix"/>
<feGaussianBlur in="BackgroundImage" stdDeviation="5"/>
<feComposite in2="SourceAlpha" operator="in" result="effect1_backgroundBlur_37_98"/>
<feBlend mode="normal" in="SourceGraphic" in2="effect1_backgroundBlur_37_98" result="shape"/>
</filter>
<filter id="filter2_b_37_98" x="47.625" y="21.75" width="86.875" height="86.5" filterUnits="userSpaceOnUse" color-interpolation-filters="sRGB">
<feFlood flood-opacity="0" result="BackgroundImageFix"/>
<feGaussianBlur in="BackgroundImage" stdDeviation="2"/>
<feComposite in2="SourceAlpha" operator="in" result="effect1_backgroundBlur_37_98"/>
<feBlend mode="normal" in="SourceGraphic" in2="effect1_backgroundBlur_37_98" result="shape"/>
</filter>
</defs>
</svg>
